<svg id="Layer_35" enable-background="new 0 0 64 64" height="512" viewBox="0 0 64 64" width="512" xmlns="http://www.w3.org/2000/svg"><path d="m54 50h-48c-2.209 0-4-1.791-4-4v-28c0-2.209 1.791-4 4-4h48z" fill="#aab2bd"/><path d="m25 58h20v4h-20z" fill="#ef7385"/><path d="m62 18v28c0 2.21-1.79 4-4 4h-4v-36h4c2.21 0 4 1.79 4 4z" fill="#838f9b"/><path d="m6 26v12c0 1.1-.9 2-2 2h-2v-16h2c1.1 0 2 .9 2 2z" fill="#fcd770"/><path d="m49 46h-38c-.552 0-1-.448-1-1v-26c0-.552.448-1 1-1h38c.552 0 1 .448 1 1v26c0 .552-.448 1-1 1z" fill="#69d6f4"/><path d="m42 2h-24c-2.21 0-4 1.79-4 4v8 4 12c0 2.21 1.79 4 4 4h24c2.21 0 4-1.79 4-4v-12-4-8c0-2.21-1.79-4-4-4z" fill="#e6e9ed"/><path d="m42 15v6l-2.71.68c-.04.1-.07.2-.12.3l1.44 2.38-4.25 4.25-2.36-1.43v-4.72c1.22-1.1 2-2.69 2-4.46 0-3.31-2.69-6-6-6s-6 2.69-6 6 2.69 6 6 6v6h-3l-.68-2.71c-.1-.04-.2-.07-.3-.12l-2.38 1.44-4.25-4.25 1.44-2.38c-.05-.1-.08-.2-.12-.3l-2.71-.68v-6l2.71-.68c.04-.1.07-.2.12-.3l-1.44-2.38 4.25-4.25 2.38 1.44c.1-.05.2-.08.3-.12l.68-2.71h6l.68 2.71c.1.04.2.07.3.12l2.38-1.44 4.25 4.25-1.44 2.38c.05.1.08.2.12.3z" fill="#fcd770"/><path d="m42 36c0-1.1.9-2 2-2 .55 0 1.05.22 1.41.59.37.36.59.86.59 1.41v10 3c0 .33-.03.66-.08.98-.16.95-.54 1.85-1.12 2.62l-1.8 2.4v3h-16v-3l-2.43-5-.97-2c-.36-.62-.6-1.3-.71-2-.02-.08-.03-.15-.04-.23l-.69-5.54c-.11-.84-.4-1.64-.87-2.34l-1.03-1.55c-.17-.25-.26-.54-.26-.85 0-.73.51-1.34 1.2-1.49h.98c1.06.12 2.02.55 2.81 1.19.95.78 1.63 1.87 1.88 3.14.54 2.69 1.13 5.63 1.13 5.63h1l.58-1.16c.28-.55.42-1.17.42-1.79v-7.01-4-6-2c0-1.1.9-2 2-2 .55 0 1.05.22 1.41.59.37.36.59.86.59 1.41v.46 4.72 6.82c0-1.1.9-2 2-2 .55 0 1.05.22 1.41.59.37.36.59.86.59 1.41 0-1.1.9-2 2-2 .55 0 1.05.22 1.41.59.37.36.59.86.59 1.41z" fill="#f0d0b4"/><path d="m58 13h-11v-7c0-2.757-2.243-5-5-5h-24c-2.757 0-5 2.243-5 5v7h-7c-2.757 0-5 2.243-5 5v28c0 2.757 2.243 5 5 5h17.943l2.057 4.23v1.77h-2v6h22v-6h-2v-1.667l1.6-2.133c.496-.661.856-1.411 1.092-2.2h11.308c2.757 0 5-2.243 5-5v-28c0-2.757-2.243-5-5-5zm-43-7c0-1.654 1.346-3 3-3h24c1.654 0 3 1.346 3 3v24c0 1.383-.945 2.538-2.22 2.884-.444-1.102-1.521-1.884-2.78-1.884-.771 0-1.468.301-2 .78-.532-.48-1.229-.78-2-.78-.352 0-.686.072-1 .184v-2.23l1.52.912 5.346-5.347-1.281-2.134 2.415-.604v-7.562l-2.416-.603 1.281-2.134-5.345-5.348-2.136 1.281-.603-2.415h-7.562l-.603 2.416-2.136-1.282-5.346 5.347 1.281 2.134-2.415.604v7.562l2.416.603-1.281 2.134 5.346 5.347 2.136-1.281.602 2.416h2.781v2h-6.99c-.159-.012-.314-.042-.475-.042-.142 0-.279.019-.415.042h-3.12c-1.654 0-3-1.346-3-3zm14 23h-1.219l-.611-2.446-1.22-.503-2.159 1.296-3.139-3.138 1.296-2.158-.496-1.22-2.452-.612v-4.438l1.949-.487.535-.203.464-1.142-1.296-2.158 3.139-3.138 2.159 1.296 1.22-.503.611-2.446h4.438l.611 2.446 1.22.503 2.159-1.296 3.139 3.138-1.296 2.158.496 1.22 2.452.612v4.438l-1.949.487-.535.203-.464 1.142 1.296 2.158-3.139 3.138-1.209-.726v-3.745c1.272-1.305 2-3.053 2-4.876 0-3.86-3.141-7-7-7s-7 3.14-7 7c0 3.519 2.614 6.432 6 6.92zm0-7v.899c-2.279-.465-4-2.484-4-4.899 0-2.757 2.243-5 5-5s5 2.243 5 5c0 .796-.199 1.572-.558 2.27-.544-.766-1.433-1.27-2.442-1.27-1.654 0-3 1.346-3 3zm0 13v6.014c0 .455-.105.911-.306 1.319l-.839-4.195c-.243-1.215-.835-2.283-1.643-3.138zm-11 0h1.05c-.032.16-.05.324-.05.493 0 .502.147.988.426 1.406l1.029 1.543c.381.572.627 1.234.712 1.916l.581 4.642h-10.748v-26h2v11c0 2.757 2.243 5 5 5zm-15-10h1c.552 0 1 .449 1 1v12c0 .551-.448 1-1 1h-1zm3 24c-1.654 0-3-1.346-3-3v-5h1c1.654 0 3-1.346 3-3v-12c0-1.654-1.346-3-3-3h-1v-5c0-1.654 1.346-3 3-3h7v2h-2c-1.103 0-2 .897-2 2v26c0 1.103.897 2 2 2h11.096c.149.511.348.998.6 1.438l.274.562zm38 12h-18v-2h18zm1-12c0 1.075-.355 2.141-1 3l-2 2.667v2.333h-14v-2.23l-3.536-7.266c-.33-.576-.538-1.202-.62-1.86l-.692-5.533c-.123-.987-.479-1.948-1.032-2.777l-1.03-1.544c-.059-.088-.09-.191-.09-.297 0-.221.135-.411.327-.493h.683c1.904.207 3.501 1.619 3.884 3.531l1.286 6.427h2.438l.854-1.708c.345-.691.528-1.465.528-2.236v-19.014c0-.551.448-1 1-1s1 .449 1 1v12 4h2v-4c0-.551.448-1 1-1s1 .449 1 1v4h2v-4c0-.551.448-1 1-1s1 .449 1 1v2 2h2v-2c0-.551.448-1 1-1s1 .449 1 1zm.59-15.534c.869-.9 1.41-2.119 1.41-3.466v-11h2v26h-2v-9c0-1.069-.566-2.003-1.41-2.534zm1.41 13.534h2c1.103 0 2-.897 2-2v-26c0-1.103-.897-2-2-2h-2v-2h6v34h-6zm14-1c0 1.654-1.346 3-3 3h-3v-34h3c1.654 0 3 1.346 3 3z"/><path d="m57 28h2v8h-2z"/></svg>