<?xml version="1.0" encoding="iso-8859-1"?>
<!-- Generator: Adobe Illustrator 19.0.0, SVG Export Plug-In . SVG Version: 6.00 Build 0)  -->
<svg version="1.1" id="Capa_1" xmlns="http://www.w3.org/2000/svg" xmlns:xlink="http://www.w3.org/1999/xlink" x="0px" y="0px"
	 viewBox="0 0 383.998 383.998" style="enable-background:new 0 0 383.998 383.998;" xml:space="preserve">
<path style="fill:#4DD0E1;" d="M327.999,151.998v216h-88v-144h-96v144h-88v-216l136-136L327.999,151.998z M199.999,135.998
	c0-4.4-3.6-8-8-8s-8,3.6-8,8s3.6,8,8,8S199.999,140.398,199.999,135.998z"/>
<rect x="143.999" y="223.998" style="fill:#FF7043;" width="96" height="144"/>
<g>
	<path style="fill:#012E52;" d="M339.311,140.686l-136-136c-6.248-6.248-16.376-6.248-22.624,0l-136,136l-40,40
		c-6.248,6.248-6.248,16.376,0,22.624c3.128,3.128,7.216,4.688,11.312,4.688s8.184-1.56,11.312-4.688l12.688-12.688v177.376
		c0,8.832,7.168,16,16,16h88c8.832,0,16-7.168,16-16v-128h64v112h-16c-8.832,0-16,7.168-16,16s7.168,16,16,16h120
		c8.832,0,16-7.168,16-16V190.622l12.688,12.688c3.128,3.128,7.216,4.688,11.312,4.688s8.184-1.56,11.312-4.688
		c6.248-6.248,6.248-16.376,0-22.624L339.311,140.686z M311.999,351.998h-56v-128c0-8.832-7.168-16-16-16h-96
		c-8.832,0-16,7.168-16,16v128h-56V158.63l120-120l120,120V351.998z"/>
	<path style="fill:#012E52;" d="M167.999,135.998c0,13.232,10.768,24,24,24s24-10.768,24-24s-10.768-24-24-24
		S167.999,122.766,167.999,135.998z"/>
</g>
<g>
</g>
<g>
</g>
<g>
</g>
<g>
</g>
<g>
</g>
<g>
</g>
<g>
</g>
<g>
</g>
<g>
</g>
<g>
</g>
<g>
</g>
<g>
</g>
<g>
</g>
<g>
</g>
<g>
</g>
</svg>
