<svg id="Layer_35" enable-background="new 0 0 64 64" height="512" viewBox="0 0 64 64" width="512" xmlns="http://www.w3.org/2000/svg"><path d="m57 40v19c0 .83-.34 1.58-.88 2.12s-1.29.88-2.12.88c-1.66 0-3-1.34-3-3v-22h6z" fill="#cf9e76"/><path d="m51 37v22c0 1.66-1.34 3-3 3-.83 0-1.58-.34-2.12-.88s-.88-1.29-.88-2.12v-20.6c.19-.51.36-1.02.5-1.55l.5.15z" fill="#cf9e76"/><path d="m57 37h-6-5l-.5-.15c.33-1.23.5-2.52.5-3.85 0-4.34-1.85-8.26-4.81-10.99l.01-.01c.63-1.24 1.5-2.35 2.54-3.26l7.26 7.26 7.26-7.26c2.29 2.01 3.74 4.96 3.74 8.26v9c0 2.21-1.79 4-4 4h-1z" fill="#b4dd7f"/><path d="m58.26 18.74-7.26 7.26-7.26-7.26c.45-.4.93-.76 1.44-1.08.88-.55 1.85-.98 2.88-1.26-.04.19-.06.39-.06.6 0 1.66 1.34 3 3 3s3-1.34 3-3c0-.21-.02-.41-.06-.6 1.62.45 3.09 1.25 4.32 2.34z" fill="#fcd770"/><path d="m53.94 16.4c.04.19.06.39.06.6 0 1.66-1.34 3-3 3s-3-1.34-3-3c0-.21.02-.41.06-.6.93-.26 1.92-.4 2.94-.4s2.01.14 2.94.4z" fill="#f0d0b4"/><circle cx="51" cy="9" fill="#f0d0b4" r="7"/><path d="m18.5 48.5 1.5 1.5-10.76 10.76c-.79.79-1.87 1.24-3 1.24-1.17 0-2.23-.48-3-1.24-.76-.77-1.24-1.83-1.24-3 0-1.13.45-2.21 1.24-3l10.76-10.76 1.5 1.5z" fill="#cf9e76"/><path d="m22 45-3.5 3.5-3-3 3.5-3.5c.86 1.14 1.86 2.14 3 3z" fill="#aab2bd"/><path d="m24 8v6h-16c-3.31 0-6-2.69-6-6 0-1.66.67-3.16 1.76-4.24 1.08-1.09 2.58-1.76 4.24-1.76h10c3.31 0 6 2.69 6 6z" fill="#ffeaa7"/><path d="m46 33c0 1.33-.17 2.62-.5 3.85-.14.53-.31 1.04-.5 1.55-2.17 5.61-7.62 9.6-14 9.6-3.38 0-6.5-1.12-9-3-1.14-.86-2.14-1.86-3-3-1.88-2.5-3-5.62-3-9 0-8.28 6.72-15 15-15 3.94 0 7.52 1.52 10.19 4.01 2.96 2.73 4.81 6.65 4.81 10.99z" fill="#e6e9ed"/><path d="m31 22c6.08 0 11 4.92 11 11s-4.92 11-11 11-11-4.92-11-11 4.92-11 11-11z" fill="#69d6f4"/><path d="m39 30-10 10-5-5 3-3 2 2 7-7z" fill="#fcd770"/><path d="m31 21c-6.617 0-12 5.383-12 12s5.383 12 12 12 12-5.383 12-12-5.383-12-12-12zm0 22c-5.514 0-10-4.486-10-10s4.486-10 10-10 10 4.486 10 10-4.486 10-10 10z"/><path d="m55.223 15.782c2.263-1.415 3.777-3.922 3.777-6.782 0-4.411-3.589-8-8-8s-8 3.589-8 8c0 2.853 1.506 5.355 3.76 6.772-2.373.892-4.418 2.526-5.828 4.707-2.732-2.171-6.18-3.479-9.932-3.479-8.822 0-16 7.178-16 16 0 3.285.998 6.34 2.702 8.884l-2.202 2.202-1.5-1.5-11.464 11.464c-.991.991-1.536 2.307-1.536 3.707 0 2.891 2.352 5.243 5.243 5.243 1.4 0 2.717-.545 3.707-1.536l11.464-11.464-1.5-1.5 2.202-2.202c2.544 1.704 5.599 2.702 8.884 2.702 5.356 0 10.094-2.655 13-6.708v16.708c0 2.206 1.794 4 4 4 1.2 0 2.266-.542 3-1.382.734.84 1.8 1.382 3 1.382 2.206 0 4-1.794 4-4v-18c2.757 0 5-2.243 5-5v-9c0-5.129-3.241-9.504-7.777-11.218zm-8.142 2.019c.372 1.823 1.988 3.199 3.919 3.199s3.547-1.376 3.919-3.198c.651.278 1.262.628 1.833 1.032l-5.752 5.752-5.749-5.749c.575-.405 1.181-.761 1.83-1.036zm3.919-.801c.678 0 1.34.069 1.98.198-.101 1.009-.945 1.802-1.98 1.802-1.028 0-1.867-.782-1.978-1.781.645-.13 1.302-.219 1.978-.219zm-6-8c0-3.309 2.691-6 6-6s6 2.691 6 6-2.691 6-6 6-6-2.691-6-6zm-36.464 51.05c-.613.613-1.427.95-2.293.95-1.788 0-3.243-1.455-3.243-3.243 0-.866.337-1.68.95-2.293l10.05-10.05 4.586 4.586zm9.964-12.964-1.586-1.586 2.022-2.022c.491.565 1.021 1.095 1.586 1.586zm12.5-.086c-7.72 0-14-6.28-14-14s6.28-14 14-14 14 6.28 14 14-6.28 14-14 14zm17 14c-1.103 0-2-.897-2-2v-20.485c.063-.171.131-.341.189-.515h3.811v21c0 1.103-.897 2-2 2zm6 0c-1.103 0-2-.897-2-2v-21h4v21c0 1.103-.897 2-2 2zm7-25c0 1.654-1.346 3-3 3v-13h-2v10h-9.292c.186-.973.292-1.974.292-3 0-4.334-1.738-8.265-4.547-11.149.372-.618.789-1.199 1.271-1.712l7.276 7.275 7.265-7.265c1.69 1.792 2.735 4.199 2.735 6.851z"/><path d="m36 25.586-7 7-2-2-4.414 4.414 6.414 6.414 11.414-11.414zm-10.586 9.414 1.586-1.586 2 2 7-7 1.586 1.586-8.586 8.586z"/><path d="m8 15h17v-7c0-3.86-3.14-7-7-7h-10c-3.86 0-7 3.14-7 7s3.14 7 7 7zm0-12h10c2.757 0 5 2.243 5 5v5h-15c-2.757 0-5-2.243-5-5s2.243-5 5-5z"/><path d="m5 5h16v2h-16z"/><path d="m5 9h8v2h-8z"/><path d="m15 9h2v2h-2z"/><path d="m19 9h2v2h-2z"/></svg>