<svg id="Layer_35" enable-background="new 0 0 64 64" height="512" viewBox="0 0 64 64" width="512" xmlns="http://www.w3.org/2000/svg"><path d="m2 2h38v8h-38z" fill="#fcd770"/><path d="m2 10h38v24h-38z" fill="#e6e9ed"/><g fill="#ef7385"><path d="m30 14h4v16h-4z"/><path d="m22 22h4v8h-4z"/><path d="m18 18v12h-2c-1.1 0-2 .9-2 2v-14z"/><path d="m6 24h4v6h-4z"/></g><path d="m36 34v6c0 1.1-.9 2-2 2h-4v4l-8-4h-6c-1.1 0-2-.9-2-2v-6-2c0-1.1.9-2 2-2h2 4 4 4 4c1.1 0 2 .9 2 2z" fill="#ffeaa7"/><path d="m60.24 51.76c1.09 1.08 1.76 2.58 1.76 4.24 0 3.31-2.69 6-6 6h-6v-12h3 3c.66 0 1.3.11 1.89.31.9.29 1.7.79 2.35 1.45z" fill="#aab2bd"/><path d="m16 56v6l-6-3v-6l6-3z" fill="#aab2bd"/><path d="m16 56h30v6h-30z" fill="#ef7385"/><path d="m16 50h30v6h-30z" fill="#fcd770"/><path d="m50 50v12h-4v-6-6h2z" fill="#e6e9ed"/><path d="m10 53v6l-6-3z" fill="#e6e9ed"/><path d="m58 36v14l-.11.31c-.59-.2-1.23-.31-1.89-.31h-3v-17h5z" fill="#cf9e76"/><path d="m53 33v17h-3-2v-14-3z" fill="#cf9e76"/><path d="m56 26 2.59-6.04c2.08 1.64 3.41 4.18 3.41 7.04v6c0 1.66-1.34 3-3 3h-1v-3h-5-5v3h-1c-1.66 0-3-1.34-3-3v-6c0-2.48 1.01-4.74 2.64-6.36.24-.24.5-.47.77-.68l2.59 6.04 3-3z" fill="#fcd770"/><path d="m56.62 18.77-3.62 4.23-3.62-4.23c1.11-.5 2.33-.77 3.62-.77s2.51.27 3.62.77z" fill="#f0d0b4"/><path d="m58.59 19.95v.01l-2.59 6.04-3-3 3.62-4.23c.71.3 1.37.7 1.97 1.18z" fill="#e6e9ed"/><path d="m49.38 18.77 3.62 4.23-3 3-2.59-6.04v-.01c.6-.48 1.26-.88 1.97-1.18z" fill="#e6e9ed"/><path d="m56.73 7.3c1.38 1.1 2.27 2.8 2.27 4.7 0 3.31-2.69 6-6 6s-6-2.69-6-6c0-1.9.89-3.6 2.27-4.7 1.19.38 2.54.7 3.73.7s2.54-.32 3.73-.7z" fill="#f0d0b4"/><path d="m60 2v4s-1.45.73-3.27 1.3c-1.19.38-2.54.7-3.73.7s-2.54-.32-3.73-.7c-1.82-.57-3.27-1.3-3.27-1.3v-4z" fill="#969faa"/><path d="m61 6.618v-3.618h2v-2h-20v2h2v3.618l.553.276c.072.036.827.408 1.909.83-.939 1.212-1.462 2.703-1.462 4.276 0 2.41 1.225 4.54 3.085 5.8-3.573 1.526-6.085 5.075-6.085 9.2v6c0 2.206 1.794 4 4 4v12h-31.236l-14 7 14 7h40.236c3.859 0 7-3.141 7-7 0-2.785-1.639-5.188-4-6.315v-12.685c2.206 0 4-1.794 4-4v-6c0-4.125-2.512-7.674-6.085-9.2 1.86-1.26 3.085-3.39 3.085-5.8 0-1.573-.523-3.063-1.462-4.276 1.082-.421 1.837-.794 1.909-.83zm-6.094 12.621-1.906 2.224-1.906-2.224c.612-.15 1.248-.239 1.906-.239s1.294.089 1.906.239zm1.974.771c.162.091.32.188.476.289l-1.693 3.949-1.301-1.301zm-6.543 4.238-1.693-3.949c.155-.101.313-.199.476-.289l2.518 2.938zm-1.337 9.752h3v15h-3zm-4 21h-28v-4h28zm-30 5.382-4-2v-4.764l4-2zm2-3.382h28v4h-28zm30-6h2v10h-2zm-38 3.618v2.764l-2.764-1.382zm52 1.382c0 2.757-2.243 5-5 5h-5v-10h5c2.757 0 5 2.243 5 5zm-5-7h-2v-15h3v15.08c-.328-.047-.66-.08-1-.08zm5-22v6c0 1.103-.897 2-2 2v-8h-2v5h-8v-5h-2v8c-1.103 0-2-.897-2-2v-6c0-2.05.782-3.917 2.055-5.334l2.608 6.086 3.337-3.337 3.337 3.337 2.608-6.086c1.273 1.417 2.055 3.284 2.055 5.334zm-3-15c0 2.757-2.243 5-5 5s-5-2.243-5-5c0-1.362.547-2.64 1.512-3.578 1.133.327 2.364.578 3.488.578s2.355-.251 3.488-.578c.965.938 1.512 2.216 1.512 3.578zm-5-5c-2.104 0-4.844-1.118-6-1.637v-2.363h12v2.363c-1.155.519-3.891 1.637-6 1.637z"/><path d="m5 5h2v2h-2z"/><path d="m9 5h2v2h-2z"/><path d="m13 5h2v2h-2z"/><path d="m13 40c0 1.654 1.346 3 3 3h5.764l9.236 4.618v-4.618h3c1.654 0 3-1.346 3-3v-5h4v-34h-40v34h12zm4-11h-1c-.352 0-.686.072-1 .184v-10.184h2zm18 11c0 .552-.448 1-1 1h-5v3.382l-6.764-3.382h-6.236c-.552 0-1-.448-1-1v-8c0-.552.448-1 1-1h18c.552 0 1 .448 1 1zm-10-11h-2v-6h2zm8 0h-2v-14h2zm6-26v6h-36v-6zm-36 30v-22h36v22h-2v-1c0-1.302-.839-2.402-2-2.816v-16.184h-6v16h-2v-8h-6v8h-2v-12h-6v15 1z"/><path d="m17 33h16v2h-16z"/><path d="m17 37h12v2h-12z"/><path d="m31 37h2v2h-2z"/><path d="m5 31h6v-8h-6zm2-6h2v4h-2z"/></svg>