<svg id="Layer_35" enable-background="new 0 0 64 64" height="512" viewBox="0 0 64 64" width="512" xmlns="http://www.w3.org/2000/svg"><path d="m2 11.24 6.75 31.76h8.25v-34.95z" fill="#e6e9ed"/><path d="m17 32.59v10.41h-4.16l-1.94-9.12z" fill="#b4dd7f"/><path d="m17 20.55v7.95l-6.93 1.47-.21-.98c-.8-3.78 1.61-7.5 5.39-8.3.59-.13 1.18-.17 1.75-.14z" fill="#fcd770"/><path d="m17 13.74v6.07c-.49.42-1.07.74-1.75.88-2.16.46-4.28-.92-4.74-3.08s.92-4.29 3.08-4.75c1.26-.26 2.5.11 3.41.88z" fill="#fcd770"/><path d="m62 11.24-6.5 30.56-.17.77c-1.29-4.18-4.36-7.59-8.33-9.32v-25.2z" fill="#e6e9ed"/><path d="m17 2v43l30 .25v-43.25z" fill="#ffeaa7"/><path d="m43 32.13v.01c-.65-.09-1.32-.14-2-.14-5.34 0-10.03 2.79-12.69 7h-7.31v-13h22z" fill="#b4dd7f"/><path d="m35 21v1h-14v-1c0-1.94.78-3.68 2.05-4.95s3.01-2.05 4.95-2.05c3.87 0 7 3.13 7 7z" fill="#fcd770"/><circle cx="28" cy="10" fill="#fcd770" r="4"/><path d="m20 49v2h-14c-2.21 0-4-1.79-4-4 0-1.1.45-2.1 1.17-2.83.73-.72 1.73-1.17 2.83-1.17h2.75 4.09 4.16 3v2z" fill="#cf9e76"/><path d="m20 45h6.14c-.09.65-.14 1.32-.14 2s.05 1.35.14 2h-6.14z" fill="#aab2bd"/><path d="m55.33 42.57c.44 1.4.67 2.89.67 4.43 0 8.28-6.72 15-15 15-7.6 0-13.89-5.66-14.86-13-.09-.65-.14-1.32-.14-2s.05-1.35.14-2c.28-2.19 1.05-4.22 2.17-6 2.66-4.21 7.35-7 12.69-7 .68 0 1.35.05 2 .14 1.41.18 2.75.56 4 1.11 3.97 1.73 7.04 5.14 8.33 9.32z" fill="#e6e9ed"/><circle cx="41" cy="47" fill="#69d6f4" r="11"/><path d="m41 35c-6.617 0-12 5.383-12 12s5.383 12 12 12 12-5.383 12-12-5.383-12-12-12zm0 22c-5.514 0-10-4.486-10-10s4.486-10 10-10 10 4.486 10 10-4.486 10-10 10z"/><path d="m41 53v2c.785 0 1.562-.114 2.309-.338l-.576-1.915c-.56.168-1.143.253-1.733.253z"/><path d="m41 39v2c3.309 0 6 2.691 6 6 0 2.019-1.006 3.89-2.691 5.007l1.104 1.667c2.246-1.488 3.587-3.983 3.587-6.674 0-4.411-3.589-8-8-8z"/><path d="m36 21c0-3.232-1.93-6.016-4.695-7.277 1.031-.917 1.695-2.238 1.695-3.723 0-2.757-2.243-5-5-5s-5 2.243-5 5c0 1.485.664 2.806 1.695 3.723-2.765 1.261-4.695 4.045-4.695 7.277v2h16zm-11-11c0-1.654 1.346-3 3-3s3 1.346 3 3-1.346 3-3 3-3-1.346-3-3zm-3 11c0-3.309 2.691-6 6-6s6 2.691 6 6z"/><path d="m38 5h6v2h-6z"/><path d="m38 9h6v2h-6z"/><path d="m38 13h6v2h-6z"/><path d="m38 17h6v2h-6z"/><path d="m38 21h6v2h-6z"/><path d="m54.3 10.902h2v6h-2z" transform="matrix(.208 -.978 .978 .208 30.203 65.103)"/><path d="m53.468 14.815h2v6h-2z" transform="matrix(.208 -.978 .978 .208 25.717 67.389)"/><path d="m52.636 18.728h2v5.999h-2z" transform="matrix(.208 -.978 .978 .208 21.23 69.673)"/><path d="m51.805 22.64h2v6h-2z" transform="matrix(.208 -.978 .978 .208 16.746 71.96)"/><path d="m50.973 26.553h2v6h-2z" transform="matrix(.208 -.978 .978 .208 12.254 74.241)"/><path d="m63.187 10.467-15.187-3.228v-6.239h-32v6.239l-15.187 3.228 6.703 31.533h-1.516c-2.757 0-5 2.243-5 5s2.243 5 5 5h15v-2h4.292c1.409 7.392 7.912 13 15.708 13 8.822 0 16-7.178 16-16 0-1.547-.232-3.038-.643-4.454zm-2.374 1.54-5.799 27.287c-1.591-2.881-4.049-5.209-7.014-6.659v-23.351zm-14.813-9.007v28.811c-.65-.215-1.317-.389-2-.519v-6.292h-24v15h6.635c-.613 1.253-1.074 2.591-1.343 4h-4.292v-2h-3v-39zm-18.218 35h-5.782v-11h20v4.051c-.332-.021-.662-.051-1-.051-5.487 0-10.335 2.778-13.218 7zm-14.131 4-1.562-7.349 3.911-.831v8.18zm-1.973-17.733c.873-1.344 2.217-2.268 3.785-2.601.174-.037.356-.057.537-.077v6.097l-5.158 1.097c-.334-1.568-.036-3.172.836-4.516zm1.111-4.975c-.672-.437-1.134-1.108-1.3-1.893-.167-.784-.019-1.585.418-2.257s1.108-1.134 1.892-1.301c.76-.161 1.539.002 2.201.422v5.023c-.302.196-.616.353-.953.424-.785.166-1.586.018-2.258-.418zm-9.602-7.285 12.813-2.723v2.761c-.835-.284-1.733-.349-2.617-.16-1.306.278-2.426 1.047-3.153 2.167s-.975 2.457-.697 3.762c.277 1.307 1.048 2.427 2.168 3.154.082.053.169.092.253.14-.758.562-1.423 1.254-1.952 2.069-1.164 1.792-1.561 3.93-1.116 6.02l.414 1.958 6.7-1.425v2.045l-6.284 1.336 1.889 8.889h-2.044zm15.813 37.993h-13c-1.654 0-3-1.346-3-3s1.346-3 3-3h13zm2-2v-2h4.051c-.021.332-.051.662-.051 1s.03.668.051 1zm20 13c-7.72 0-14-6.28-14-14s6.28-14 14-14 14 6.28 14 14-6.28 14-14 14z"/></svg>